# xmcd
#
# Track frame offsets: 
#        180
#        18903
#        45379
#        74676
#        95933
#        114762
#        129848
#        146249
#        162427
#
# Disc length: 2569 seconds
#
# Revision: 1
# Processed by: cddbd v1.5.2PL0 Copyright (c) Steve Scherf et al.
# Submitted via: ExactAudioCopyFreeDBPlugin 1.0
#
DISCID=7a0a0709
DTITLE=The Sharecroppers of Soul - Sharecroppers of Soul
DYEAR=1996
DGENRE=Blues
TTITLE0=If You Really Love Me
TTITLE1=Ain't That a Bitch
TTITLE2=Everybody Wants to Go to Heaven
TTITLE3=If You're Going to the City
TTITLE4=Monster in My Pocket
TTITLE5=Cha Cha in Blue
TTITLE6=See Me in the Evening
TTITLE7=Homework
TTITLE8=Highway 13
EXTD=
EXTT0=
EXTT1=
EXTT2=
EXTT3=
EXTT4=
EXTT5=
EXTT6=
EXTT7=
EXTT8=
PLAYORDER=
